<svg width="32" height="32" viewBox="0 0 32 32" fill="none" xmlns="http://www.w3.org/2000/svg">
  <!-- GitHub-style background -->
  <rect width="32" height="32" rx="6" fill="#0d1117"/>
  
  <!-- GitHub Octocat silhouette -->
  <path d="M16 4C9.37 4 4 9.37 4 16c0 5.3 3.44 9.8 8.2 11.39.6.11.82-.26.82-.58v-2.03c-3.34.73-4.04-1.61-4.04-1.61-.55-1.39-1.34-1.76-1.34-1.76-1.1-.75.08-.73.08-.73 1.21.09 1.85 1.25 1.85 1.25 1.08 1.85 2.83 1.31 3.52 1 .11-.78.42-1.31.77-1.61-2.67-.3-5.47-1.34-5.47-5.93 0-1.31.47-2.38 1.24-3.22-.12-.3-.54-1.52.12-3.17 0 0 1.01-.32 3.3 1.23.96-.27 1.98-.4 3-.4s2.04.13 3 .4c2.29-1.55 3.3-1.23 3.3-1.23.66 1.65.24 2.87.12 3.17.77.84 1.24 1.91 1.24 3.22 0 4.61-2.8 5.63-5.48 5.92.43.37.81 1.1.81 2.22v3.29c0 .32.22.69.82.58C24.56 25.8 28 21.3 28 16c0-6.63-5.37-12-12-12z" fill="#f0f6fc"/>
  
  <!-- AI/Testing indicator -->
  <circle cx="24" cy="8" r="4" fill="#2f81f7"/>
  <path d="M22 8l1.5 1.5L26 7" stroke="white" stroke-width="1.5" stroke-linecap="round" stroke-linejoin="round"/>
</svg>